<mxfile host="Electron" modified="2023-11-11T01:54:54.983Z" agent="Mozilla/5.0 (Windows NT 10.0; Win64; x64) AppleWebKit/537.36 (KHTML, like Gecko) draw.io/22.0.2 Chrome/114.0.5735.289 Electron/25.8.4 Safari/537.36" etag="f9c7WRxLvYXv5i8k5YMJ" version="22.0.2" type="device">
  <diagram name="PÃ¡gina-1" id="TKgzjKR9RG3whk5rdJHj">
    <mxGraphModel dx="909" dy="535" grid="1" gridSize="10" guides="1" tooltips="1" connect="1" arrows="1" fold="1" page="1" pageScale="1" pageWidth="827" pageHeight="1169" math="0" shadow="0">
      <root>
        <mxCell id="0" />
        <mxCell id="1" parent="0" />
        <mxCell id="xT_o5hPYoT9-JwyQ2yPZ-1" value="inicio" style="ellipse;whiteSpace=wrap;html=1;" parent="1" vertex="1">
          <mxGeometry x="340" y="290" width="120" height="80" as="geometry" />
        </mxCell>
        <mxCell id="xT_o5hPYoT9-JwyQ2yPZ-2" value="" style="endArrow=classic;html=1;rounded=0;" parent="1" edge="1">
          <mxGeometry width="50" height="50" relative="1" as="geometry">
            <mxPoint x="399.71" y="370" as="sourcePoint" />
            <mxPoint x="399.71" y="410" as="targetPoint" />
          </mxGeometry>
        </mxCell>
        <mxCell id="xT_o5hPYoT9-JwyQ2yPZ-4" value="Ingrese numeor de la tabla de multiplicar" style="rounded=0;whiteSpace=wrap;html=1;" parent="1" vertex="1">
          <mxGeometry x="340" y="410" width="120" height="60" as="geometry" />
        </mxCell>
        <mxCell id="xT_o5hPYoT9-JwyQ2yPZ-5" value="" style="endArrow=classic;html=1;rounded=0;" parent="1" target="xT_o5hPYoT9-JwyQ2yPZ-6" edge="1">
          <mxGeometry width="50" height="50" relative="1" as="geometry">
            <mxPoint x="399.74" y="470" as="sourcePoint" />
            <mxPoint x="400" y="520" as="targetPoint" />
          </mxGeometry>
        </mxCell>
        <mxCell id="xT_o5hPYoT9-JwyQ2yPZ-6" value="Leo numero" style="rounded=0;whiteSpace=wrap;html=1;" parent="1" vertex="1">
          <mxGeometry x="340" y="510" width="120" height="20" as="geometry" />
        </mxCell>
        <mxCell id="xT_o5hPYoT9-JwyQ2yPZ-7" value="" style="endArrow=classic;html=1;rounded=0;" parent="1" edge="1">
          <mxGeometry width="50" height="50" relative="1" as="geometry">
            <mxPoint x="399.71000000000004" y="530" as="sourcePoint" />
            <mxPoint x="399.97" y="570" as="targetPoint" />
          </mxGeometry>
        </mxCell>
        <mxCell id="xT_o5hPYoT9-JwyQ2yPZ-8" value="i=1;i&lt;=10;i++" style="rounded=0;whiteSpace=wrap;html=1;" parent="1" vertex="1">
          <mxGeometry x="340" y="570" width="120" height="60" as="geometry" />
        </mxCell>
        <mxCell id="xT_o5hPYoT9-JwyQ2yPZ-9" value="" style="endArrow=classic;html=1;rounded=0;" parent="1" edge="1">
          <mxGeometry width="50" height="50" relative="1" as="geometry">
            <mxPoint x="399.55" y="630" as="sourcePoint" />
            <mxPoint x="399.81" y="670" as="targetPoint" />
          </mxGeometry>
        </mxCell>
        <mxCell id="xT_o5hPYoT9-JwyQ2yPZ-10" value="multiplicacion = i * numero" style="rounded=0;whiteSpace=wrap;html=1;" parent="1" vertex="1">
          <mxGeometry x="340" y="670" width="120" height="60" as="geometry" />
        </mxCell>
        <mxCell id="xT_o5hPYoT9-JwyQ2yPZ-11" value="" style="endArrow=classic;html=1;rounded=0;" parent="1" target="xT_o5hPYoT9-JwyQ2yPZ-12" edge="1">
          <mxGeometry width="50" height="50" relative="1" as="geometry">
            <mxPoint x="399.57" y="730" as="sourcePoint" />
            <mxPoint x="399.57" y="780" as="targetPoint" />
          </mxGeometry>
        </mxCell>
        <mxCell id="xT_o5hPYoT9-JwyQ2yPZ-12" value="fin" style="ellipse;whiteSpace=wrap;html=1;" parent="1" vertex="1">
          <mxGeometry x="339.99999999999994" y="780" width="120" height="80" as="geometry" />
        </mxCell>
      </root>
    </mxGraphModel>
  </diagram>
</mxfile>
